# xmcd CD database file
#
# Track frame offsets:
#	150
#	11790
#	24970
#	38370
#	51327
#	66200
#	80885
#	92567
#	101505
#	116037
#	129705
#	143325
#	156700
#	169417
#	182985
#	197980
#	213562
#	225662
#	238952
#	253402
#	266790
#
# Disc length: 3752 seconds
#
# Revision: 2
# Processed by: cddbd v1.5.2PL0 Copyright (c) Steve Scherf et al.
# Submitted via: CDex 1.70beta2
#
DISCID=3e0ea615
DTITLE=Harry James - Big Bands
DYEAR=1992
DGENRE=Jazz
TTITLE0=Ciribiribin
TTITLE1=Feet Draggin' Blues
TTITLE2=It's Funny To Everyone But Me wt Frank Sinatra
TTITLE3=Concerto For Trumpet
TTITLE4=Two O' Clock Jump
TTITLE5=You Made Me Love You
TTITLE6=I'm In The Market For You
TTITLE7=Flight Of The Bumblebee
TTITLE8=My Silent Love wt Dick Haymus
TTITLE9=Flash
TTITLE10=Trumpet Blues And Cantabile
TTITLE11=All Or Nothing At All wt Frank Sinatra
TTITLE12=Back Beat Boogie
TTITLE13=I Can't Begin To Tell You wt Betty Grable
TTITLE14=Music Makers
TTITLE15=I Had The Craziest Dream wt Helen Forest
TTITLE16=Willow Weep For Me
TTITLE17=I Don't Want To Walk Without You wt Helen Forest
TTITLE18=Cherry
TTITLE19=By The Sleepy Lagoon
TTITLE20=I'm Beginning To See The Light
EXTD=Time Life YEAR: 1992
EXTT0=
EXTT1=
EXTT2=
EXTT3=
EXTT4=
EXTT5=
EXTT6=
EXTT7=
EXTT8=
EXTT9=
EXTT10=
EXTT11=
EXTT12=
EXTT13=
EXTT14=
EXTT15=
EXTT16=
EXTT17=
EXTT18=
EXTT19=
EXTT20=
PLAYORDER=
